<svg width="500" height="500" viewBox="0 0 500 500" fill="none" xmlns="http://www.w3.org/2000/svg">
<path d="M320 1.73828V48.4375L240 2.77344V60.2539C128.768 65.4847 40 157.488 40 270C40 385.864 134.136 480 250 480C365.864 480 460 385.864 460 270C460.019 268.675 459.774 267.359 459.28 266.13C458.786 264.9 458.052 263.781 457.122 262.837C456.191 261.893 455.082 261.144 453.86 260.632C452.637 260.121 451.325 259.858 450 259.858C448.675 259.858 447.363 260.121 446.14 260.632C444.918 261.144 443.809 261.893 442.878 262.837C441.948 263.781 441.214 264.9 440.72 266.13C440.226 267.359 439.981 268.675 440 270C440 375.056 355.056 460 250 460C144.944 460 60 375.056 60 270C60 168.319 139.635 85.7261 240 80.5078V137.227L320 91.5625V138.262L335.391 128.418L426.777 70L320 1.73828ZM260 37.2266L317.422 70L260 102.773V71.6797C260.178 70.5998 260.178 69.4979 260 68.418V37.2266ZM340 38.2617L389.668 70L340 101.738V82.8906V57.1094V38.2617ZM190 200C190 222.5 170 230 150 230V250H190V360H190.996H210V200H190ZM252.5 200L241.562 273.516L258.906 281.68C265.546 274.27 275.06 270 285 270C304.3 270 320 285.7 320 305C320 324.3 304.3 340 285 340C265.29 340 250 323.88 250 310H230C230 336.63 255.7 360 285 360C315.33 360 340 335.32 340 305C340 274.68 315.33 250 285 250C278 250 271.146 251.337 264.766 253.867L269.863 220H330V200H252.5Z" fill="white"/>
</svg>
