<svg width="500" height="500" viewBox="0 0 500 500" fill="none" xmlns="http://www.w3.org/2000/svg">
<path d="M180 1.73828L73.2227 70L86.3867 78.418L180 138.262V91.5625L260 137.227V80.5078C360.365 85.7261 440 168.319 440 270C440 375.056 355.056 460 250 460C144.944 460 60 375.056 60 270C60.0188 268.675 59.774 267.359 59.2798 266.13C58.7857 264.9 58.0521 263.781 57.1216 262.837C56.1912 261.893 55.0825 261.144 53.8599 260.632C52.6373 260.121 51.3253 259.858 50 259.858C48.6748 259.858 47.3627 260.121 46.1402 260.632C44.9176 261.144 43.8089 261.893 42.8784 262.837C41.948 263.781 41.2144 264.9 40.7202 266.13C40.2261 267.359 39.9813 268.675 40 270C40 385.864 134.136 480 250 480C365.864 480 460 385.864 460 270C460 157.488 371.232 65.4847 260 60.2539V2.77344L180 48.4375V1.73828ZM240 37.2266V68.3203C239.822 69.4002 239.822 70.5021 240 71.582V102.773L182.578 70L240 37.2266ZM160 38.2617V57.1094V82.8906V101.738L110.332 70L160 38.2617ZM190 190C190 212.5 170 220 150 220V240H190V350H190.996H210V190H190ZM252.5 190L241.563 263.516L258.906 271.68C265.546 264.27 275.06 260 285 260C304.3 260 320 275.7 320 295C320 314.3 304.3 330 285 330C265.29 330 250 313.88 250 300H230C230 326.63 255.7 350 285 350C315.33 350 340 325.32 340 295C340 264.68 315.33 240 285 240C278 240 271.146 241.337 264.766 243.867L269.863 210H330V190H252.5Z" fill="white"/>
</svg>
